<?xml version="1.0" encoding="UTF-8" standalone="no"?>
<!DOCTYPE svg PUBLIC "-//W3C//DTD SVG 1.1//EN" "http://www.w3.org/Graphics/SVG/1.1/DTD/svg11.dtd">
<svg version="1.1" xmlns="http://www.w3.org/2000/svg" xmlns:xlink="http://www.w3.org/1999/xlink" preserveAspectRatio="xMidYMid meet" viewBox="0 0 640 640" width="640" height="640"><defs><path d="M357.62 38.18C452.06 38.18 526.21 119.12 517.96 213.21C511.82 283.14 506.6 342.64 499.92 418.76C492.77 500.31 424.48 562.86 342.62 562.86C311.71 562.86 359.11 562.86 327.06 562.86C247.52 562.86 180.31 503.91 169.93 425.05C159.74 347.68 151.52 285.22 142.39 215.81C130.01 121.7 203.25 38.18 298.17 38.18C345.2 38.18 309.9 38.18 357.62 38.18Z" id="a1RRHYWxXg"></path><clipPath id="clipb1vZzdM7ji"><use xlink:href="#a1RRHYWxXg" opacity="1"></use></clipPath><path d="M338.13 278.74C348.38 278.74 356.98 286.46 358.08 296.64C360.08 315.03 364.4 354.9 366.47 373.94C367.31 381.74 361.2 388.55 353.36 388.55C341.54 388.55 321.03 388.55 309.27 388.55C301.32 388.55 295.19 381.57 296.21 373.69C298.66 354.7 303.9 314.27 306.3 295.7C307.56 286 315.82 278.74 325.6 278.74C331.71 278.74 332.2 278.74 338.13 278.74Z" id="a1y7mSDKIm"></path><path d="M293.57 260.05C303.32 260.05 311.23 267.96 311.23 277.71C311.23 287.56 311.23 300.54 311.23 310.66C311.23 319.66 303.93 326.96 294.92 326.96C271.54 326.96 217.71 326.96 194.33 326.96C185.32 326.96 178.03 319.66 178.03 310.66C178.03 300.54 178.03 287.56 178.03 277.71C178.03 267.96 185.93 260.05 195.69 260.05C218.79 260.05 270.46 260.05 293.57 260.05Z" id="a3VIKbKQzv"></path><path d="M183.17 183.42C184.33 181.65 214.6 42.54 177.45 84.82C152.69 113.01 137.9 145.87 133.1 183.42L147.07 303.86C170.36 224.74 182.39 184.59 183.17 183.42Z" id="g9rs6U4CSX"></path><path d="M524.82 309.69C524.82 339.99 517.43 364.59 508.32 364.59C499.21 364.59 491.82 339.99 491.82 309.69C491.82 279.38 499.21 254.78 508.32 254.78C517.43 254.78 524.82 279.38 524.82 309.69Z" id="caJ5ozdS6k"></path><path d="M166.69 309.68C166.69 339.98 159.3 364.59 150.19 364.59C141.09 364.59 133.69 339.98 133.69 309.68C133.69 279.37 141.09 254.77 150.19 254.77C159.3 254.77 166.69 279.37 166.69 309.68Z" id="bHomttKSI"></path><path d="M323.59 73.94C441.59 61.51 508.87 374.46 514.38 314.87C519.9 255.28 522.1 218.55 525.41 197.08C528.72 175.62 485.71 89.75 469.17 79.58C452.62 69.42 433.87 36.65 325.79 34.23C253.74 32.61 205.58 48.88 181.32 83.03C197.49 85.25 244.92 82.22 323.59 73.94Z" id="as8XQpqSe"></path><path d="M469.85 260.05C479.6 260.05 487.51 267.96 487.51 277.71C487.51 287.56 487.51 300.54 487.51 310.66C487.51 319.66 480.21 326.96 471.21 326.96C447.83 326.96 393.99 326.96 370.61 326.96C361.61 326.96 354.31 319.66 354.31 310.66C354.31 300.54 354.31 287.56 354.31 277.71C354.31 267.96 362.22 260.05 371.97 260.05C395.08 260.05 446.74 260.05 469.85 260.05Z" id="aC0NVYyL0"></path><path d="M515.26 272.75L487.42 291.77" id="c7OKJ1Ifba"></path><path d="M354.38 290.64L310.04 290.64" id="d1TJlzPYkj"></path><path d="M405.5 598.76L499.75 464.54L511.53 305.92L452.62 476.74L429.06 427.94L334.8 415.73L240.55 427.94L216.98 478.66L146.29 302.56L171.9 464.54L264.11 598.76L334.8 618.11L405.5 598.76Z" id="b2MX0wUiBm"></path><path d="M138.85 271.69L180.1 291.77" id="c49M4vEouE"></path><path d="M261.4 522.19L332.87 546.6L404.34 522.19L404.34 461.18L332.87 436.78L261.4 461.18L261.4 522.19Z" id="b1JKTtRX3v"></path><path d="M386.37 473.38L280.49 473.38" id="crmejURs"></path></defs><g><g><g><use xlink:href="#a1RRHYWxXg" opacity="1" fill="#af8171" fill-opacity="1"></use><g clip-path="url(#clipb1vZzdM7ji)"><use xlink:href="#a1RRHYWxXg" opacity="1" fill-opacity="0" stroke="#dafefd" stroke-width="2" stroke-opacity="1"></use></g></g><g><g><filter id="shadow11088134" x="287.09" y="269.74" width="89.45" height="128.82" filterUnits="userSpaceOnUse" primitiveUnits="userSpaceOnUse"><feFlood></feFlood><feComposite in2="SourceAlpha" operator="in"></feComposite><feGaussianBlur stdDeviation="1"></feGaussianBlur><feOffset dx="1" dy="1" result="afterOffset"></feOffset><feFlood flood-color="#000000" flood-opacity="0.5"></feFlood><feComposite in2="afterOffset" operator="in"></feComposite><feMorphology operator="dilate" radius="1"></feMorphology><feComposite in2="SourceAlpha" operator="out"></feComposite></filter><path d="M338.13 278.74C348.38 278.74 356.98 286.46 358.08 296.64C360.08 315.03 364.4 354.9 366.47 373.94C367.31 381.74 361.2 388.55 353.36 388.55C341.54 388.55 321.03 388.55 309.27 388.55C301.32 388.55 295.19 381.57 296.21 373.69C298.66 354.7 303.9 314.27 306.3 295.7C307.56 286 315.82 278.74 325.6 278.74C331.71 278.74 332.2 278.74 338.13 278.74Z" id="fvGEWUvlW" fill="white" fill-opacity="1" filter="url(#shadow11088134)"></path></g><use xlink:href="#a1y7mSDKIm" opacity="1" fill="#834d1d" fill-opacity="1"></use></g><g><g><filter id="shadow8796751" x="169.03" y="251.05" width="152.2" height="85.91" filterUnits="userSpaceOnUse" primitiveUnits="userSpaceOnUse"><feFlood></feFlood><feComposite in2="SourceAlpha" operator="in"></feComposite><feGaussianBlur stdDeviation="1"></feGaussianBlur><feOffset dx="1" dy="1" result="afterOffset"></feOffset><feFlood flood-color="#000000" flood-opacity="0.5"></feFlood><feComposite in2="afterOffset" operator="in"></feComposite><feMorphology operator="dilate" radius="1"></feMorphology><feComposite in2="SourceAlpha" operator="out"></feComposite></filter><path d="M293.57 260.05C303.32 260.05 311.23 267.96 311.23 277.71C311.23 287.56 311.23 300.54 311.23 310.66C311.23 319.66 303.93 326.96 294.92 326.96C271.54 326.96 217.71 326.96 194.33 326.96C185.32 326.96 178.03 319.66 178.03 310.66C178.03 300.54 178.03 287.56 178.03 277.71C178.03 267.96 185.93 260.05 195.69 260.05C218.79 260.05 270.46 260.05 293.57 260.05Z" id="jRWVC0W1v" fill="white" fill-opacity="1" filter="url(#shadow8796751)"></path></g><g><use xlink:href="#a3VIKbKQzv" opacity="1" fill-opacity="0" stroke="#000000" stroke-width="8" stroke-opacity="1"></use></g></g><g><use xlink:href="#g9rs6U4CSX" opacity="1" fill="#7f5c47" fill-opacity="1"></use></g><g><use xlink:href="#caJ5ozdS6k" opacity="1" fill="#af8171" fill-opacity="1"></use></g><g><use xlink:href="#bHomttKSI" opacity="1" fill="#af8171" fill-opacity="1"></use></g><g><use xlink:href="#as8XQpqSe" opacity="1" fill="#5e2c0e" fill-opacity="1"></use></g><g><g><filter id="shadow2860972" x="345.31" y="251.05" width="152.2" height="85.91" filterUnits="userSpaceOnUse" primitiveUnits="userSpaceOnUse"><feFlood></feFlood><feComposite in2="SourceAlpha" operator="in"></feComposite><feGaussianBlur stdDeviation="1"></feGaussianBlur><feOffset dx="1" dy="1" result="afterOffset"></feOffset><feFlood flood-color="#000000" flood-opacity="0.5"></feFlood><feComposite in2="afterOffset" operator="in"></feComposite><feMorphology operator="dilate" radius="1"></feMorphology><feComposite in2="SourceAlpha" operator="out"></feComposite></filter><path d="M469.85 260.05C479.6 260.05 487.51 267.96 487.51 277.71C487.51 287.56 487.51 300.54 487.51 310.66C487.51 319.66 480.21 326.96 471.21 326.96C447.83 326.96 393.99 326.96 370.61 326.96C361.61 326.96 354.31 319.66 354.31 310.66C354.31 300.54 354.31 287.56 354.31 277.71C354.31 267.96 362.22 260.05 371.97 260.05C395.08 260.05 446.74 260.05 469.85 260.05Z" id="brpSkspa5" fill="white" fill-opacity="1" filter="url(#shadow2860972)"></path></g><g><use xlink:href="#aC0NVYyL0" opacity="1" fill-opacity="0" stroke="#000000" stroke-width="8" stroke-opacity="1"></use></g></g><g><g><use xlink:href="#c7OKJ1Ifba" opacity="1" fill-opacity="0" stroke="#000000" stroke-width="8" stroke-opacity="1"></use></g></g><g><g><use xlink:href="#d1TJlzPYkj" opacity="1" fill-opacity="0" stroke="#000000" stroke-width="8" stroke-opacity="1"></use></g></g><g><use xlink:href="#b2MX0wUiBm" opacity="1" fill="#6e3a28" fill-opacity="1"></use></g><g><g><use xlink:href="#c49M4vEouE" opacity="1" fill-opacity="0" stroke="#000000" stroke-width="8" stroke-opacity="1"></use></g></g><g><use xlink:href="#b1JKTtRX3v" opacity="1" fill="#8f6455" fill-opacity="1"></use></g><g><g><use xlink:href="#crmejURs" opacity="1" fill-opacity="0" stroke="#341515" stroke-width="8" stroke-opacity="1"></use></g></g></g></g></svg>