<?xml version="1.0" encoding="UTF-8" standalone="no"?>
<!DOCTYPE svg PUBLIC "-//W3C//DTD SVG 1.1//EN" "http://www.w3.org/Graphics/SVG/1.1/DTD/svg11.dtd">
<svg version="1.1" xmlns="http://www.w3.org/2000/svg" xmlns:xlink="http://www.w3.org/1999/xlink" preserveAspectRatio="xMidYMid meet" viewBox="0 0 640 640" width="640" height="640"><defs><path d="M620 320C620 485.57 484.7 620 318.06 620C151.41 620 16.12 485.57 16.12 320C16.12 154.43 151.41 20 318.06 20C484.7 20 620 154.43 620 320Z" id="c2qU507yI"></path><path d="M435.34 295.2C409.45 295.2 393.26 295.2 386.79 295.2C383.2 295.2 380.28 292.28 380.28 288.69C380.28 284.49 380.28 275.69 380.28 270.81C380.28 269.09 381.67 267.7 383.39 267.7C407.24 267.69 472.17 267.68 495.14 267.68C499.28 267.68 502.64 264.32 502.64 260.18C502.64 228.15 502.64 138.73 502.64 106.49C502.64 102.91 499.73 100 496.14 100C480.96 100 443 100 382.26 100L355.51 100C294.91 100 257.03 100 241.88 100C238.16 100 235.14 103.02 235.14 106.75C235.14 138.93 235.14 227.97 235.14 259.96C235.14 264.22 238.59 267.68 242.85 267.68C265.83 267.68 330.92 267.69 354.86 267.7C356.46 267.7 357.76 269 357.76 270.59C357.76 275.52 357.76 284.78 357.76 289.05C357.76 292.45 355 295.2 351.61 295.2C345.09 295.2 328.79 295.2 302.7 295.2L302.7 310.2L435.34 310.2L435.34 295.2Z" id="ebDFJUCdIP"></path><path d="M240.14 104.6L497.64 104.6L497.64 262.1L240.14 262.1L240.14 104.6Z" id="g1FnON1kbR"></path><path d="M197.64 350.21C197.64 355.4 193.43 359.6 188.25 359.6C168.62 359.6 118.89 359.6 99.21 359.6C94.2 359.6 90.14 355.54 90.14 350.53C90.14 319.84 90.14 237.36 90.14 206.81C90.14 201.45 94.48 197.1 99.84 197.1C119.4 197.1 168.75 197.1 188.41 197.1C193.5 197.1 197.64 201.23 197.64 206.33C197.64 236.98 197.64 319.59 197.64 350.21Z" id="d2fSliVv90"></path><path d="M95.14 204.6L192.64 204.6L192.64 347.44L95.14 347.44L95.14 204.6Z" id="bdCZ8Qnz3"></path><path d="M150 353.27C150 356.15 147.76 358.48 145 358.48C142.24 358.48 140 356.15 140 353.27C140 350.39 142.24 348.05 145 348.05C147.76 348.05 150 350.39 150 353.27Z" id="a7LhaUBRF"></path><path d="M509.86 385.24C509.86 387.18 508.29 388.76 506.35 388.76C498.99 388.76 480.35 388.76 472.97 388.76C471.09 388.76 469.57 387.24 469.57 385.36C469.57 370.73 469.57 330.45 469.57 315.87C469.57 313.86 471.2 312.24 473.2 312.24C480.54 312.24 499.04 312.24 506.4 312.24C508.32 312.24 509.86 313.78 509.86 315.7C509.86 330.31 509.86 370.64 509.86 385.24Z" id="h3q6n0cHMu"></path><path d="M145.86 352C146.31 352 146.68 352.36 146.68 352.81C146.68 353.15 146.68 353.35 146.68 353.69C146.68 354.14 146.31 354.5 145.86 354.5C145.36 354.5 144.64 354.5 144.14 354.5C143.69 354.5 143.32 354.14 143.32 353.69C143.32 353.35 143.32 353.15 143.32 352.81C143.32 352.36 143.69 352 144.14 352C144.64 352 145.36 352 145.86 352Z" id="d3fVDVtEDz"></path><path d="M491.39 386.47C491.39 387.51 490.54 388.35 489.51 388.35C488.48 388.35 487.64 387.51 487.64 386.47C487.64 385.44 488.48 384.6 489.51 384.6C490.54 384.6 491.39 385.44 491.39 386.47Z" id="a22Cue0AEQ"></path><path d="M472.08 317.1L507.51 317.1L507.51 383.77L472.08 383.77L472.08 317.1Z" id="a105SX2vq"></path><path d="M444.52 540.36C449.53 540.36 453.59 536.3 453.59 531.29C453.59 499.71 453.59 413.84 453.59 382.21C453.59 377.34 449.65 373.4 444.79 373.4C429.84 373.4 392.48 373.4 332.69 373.4L305.83 373.4C245.61 373.4 207.97 373.4 192.92 373.4C188.51 373.4 184.93 376.98 184.93 381.39C184.93 413.18 184.93 501.23 184.93 533.19C184.93 537.15 188.14 540.36 192.1 540.36C215.52 540.36 281.9 540.36 306.15 540.36C306.15 540.36 312.23 540.36 312.23 540.36C315.65 540.36 322.57 540.36 325.92 540.36C325.92 540.36 332.76 540.36 332.76 540.36C356.92 540.36 421.48 540.36 444.52 540.36Z" id="p86C8Xe2Ui"></path><path d="M489.78 385.85C489.97 385.85 490.14 386.01 490.14 386.21C490.14 386.39 490.14 386.56 490.14 386.74C490.14 386.94 489.97 387.1 489.78 387.1C489.6 387.1 489.42 387.1 489.24 387.1C489.05 387.1 488.89 386.94 488.89 386.74C488.89 386.56 488.89 386.39 488.89 386.21C488.89 386.01 489.05 385.85 489.24 385.85C489.42 385.85 489.6 385.85 489.78 385.85Z" id="gakz9ZeBo"></path><path d="M194.58 385.15L444.58 385.15L444.58 516.76L194.58 516.76L194.58 385.15Z" id="aHHXb8ZLm"></path><path d="M458.86 526.95C463.7 526.95 467.64 530.88 467.64 535.73C467.64 537.49 467.64 533.98 467.64 535.73C467.64 540.58 463.7 544.51 458.86 544.51C400.98 544.51 236.12 544.51 178.25 544.51C173.4 544.51 169.47 540.58 169.47 535.73C169.47 533.98 169.47 537.49 169.47 535.73C169.47 530.88 173.4 526.95 178.25 526.95C236.12 526.95 400.98 526.95 458.86 526.95Z" id="f2pGR0F51b"></path><path d="M291.6 526.95L343.67 526.95L343.67 532.1L291.6 532.1L291.6 526.95Z" id="b8iJghlrkI"></path><path d="M325.14 379.6C325.14 380.98 324.01 382.1 322.64 382.1C321.26 382.1 320.14 380.98 320.14 379.6C320.14 378.22 321.26 377.1 322.64 377.1C324.01 377.1 325.14 378.22 325.14 379.6Z" id="cUnt2IUg4"></path><path d="M491.39 314.68C491.39 315.42 490.83 316.02 490.14 316.02C489.45 316.02 488.89 315.42 488.89 314.68C488.89 313.95 489.45 313.35 490.14 313.35C490.83 313.35 491.39 313.95 491.39 314.68Z" id="f8hJAZEsar"></path><path d="M147.5 201.2C147.5 202.58 146.38 203.7 145 203.7C143.62 203.7 142.5 202.58 142.5 201.2C142.5 199.82 143.62 198.7 145 198.7C146.38 198.7 147.5 199.82 147.5 201.2Z" id="bbRVyUODK"></path></defs><g><g><g></g><g><g><filter id="shadow3120083" x="225.14" y="90" width="289.5" height="232.2" filterUnits="userSpaceOnUse" primitiveUnits="userSpaceOnUse"><feFlood></feFlood><feComposite in2="SourceAlpha" operator="in"></feComposite><feGaussianBlur stdDeviation="1"></feGaussianBlur><feOffset dx="2" dy="2" result="afterOffset"></feOffset><feFlood flood-color="#000000" flood-opacity="0.5"></feFlood><feComposite in2="afterOffset" operator="in"></feComposite><feMorphology operator="dilate" radius="1"></feMorphology><feComposite in2="SourceAlpha" operator="out"></feComposite></filter><path d="M435.34 295.2C409.45 295.2 393.26 295.2 386.79 295.2C383.2 295.2 380.28 292.28 380.28 288.69C380.28 284.49 380.28 275.69 380.28 270.81C380.28 269.09 381.67 267.7 383.39 267.7C407.24 267.69 472.17 267.68 495.14 267.68C499.28 267.68 502.64 264.32 502.64 260.18C502.64 228.15 502.64 138.73 502.64 106.49C502.64 102.91 499.73 100 496.14 100C480.96 100 443 100 382.26 100L355.51 100C294.91 100 257.03 100 241.88 100C238.16 100 235.14 103.02 235.14 106.75C235.14 138.93 235.14 227.97 235.14 259.96C235.14 264.22 238.59 267.68 242.85 267.68C265.83 267.68 330.92 267.69 354.86 267.7C356.46 267.7 357.76 269 357.76 270.59C357.76 275.52 357.76 284.78 357.76 289.05C357.76 292.45 355 295.2 351.61 295.2C345.09 295.2 328.79 295.2 302.7 295.2L302.7 310.2L435.34 310.2L435.34 295.2Z" id="aQMgglt8a" fill="white" fill-opacity="1" filter="url(#shadow3120083)"></path></g><use xlink:href="#ebDFJUCdIP" opacity="1" fill="#4c4c4c" fill-opacity="1"></use></g><g><use xlink:href="#g1FnON1kbR" opacity="1" fill="#846b92" fill-opacity="1"></use></g><g><g><filter id="shadow10392050" x="80.14" y="187.1" width="129.5" height="184.5" filterUnits="userSpaceOnUse" primitiveUnits="userSpaceOnUse"><feFlood></feFlood><feComposite in2="SourceAlpha" operator="in"></feComposite><feGaussianBlur stdDeviation="1"></feGaussianBlur><feOffset dx="2" dy="2" result="afterOffset"></feOffset><feFlood flood-color="#000000" flood-opacity="0.5"></feFlood><feComposite in2="afterOffset" operator="in"></feComposite><feMorphology operator="dilate" radius="1"></feMorphology><feComposite in2="SourceAlpha" operator="out"></feComposite></filter><path d="M197.64 350.21C197.64 355.4 193.43 359.6 188.25 359.6C168.62 359.6 118.89 359.6 99.21 359.6C94.2 359.6 90.14 355.54 90.14 350.53C90.14 319.84 90.14 237.36 90.14 206.81C90.14 201.45 94.48 197.1 99.84 197.1C119.4 197.1 168.75 197.1 188.41 197.1C193.5 197.1 197.64 201.23 197.64 206.33C197.64 236.98 197.64 319.59 197.64 350.21Z" id="b31kyKf9vr" fill="white" fill-opacity="1" filter="url(#shadow10392050)"></path></g><use xlink:href="#d2fSliVv90" opacity="1" fill="#4c4c4c" fill-opacity="1"></use><g><use xlink:href="#d2fSliVv90" opacity="1" fill-opacity="0" stroke="#a4afee" stroke-width="0" stroke-opacity="1"></use></g></g><g><use xlink:href="#bdCZ8Qnz3" opacity="1" fill="#ba994e" fill-opacity="1"></use></g><g><use xlink:href="#a7LhaUBRF" opacity="1" fill="#b4b4b4" fill-opacity="1"></use></g><g><g><filter id="shadow2367137" x="459.57" y="302.24" width="62.3" height="98.52" filterUnits="userSpaceOnUse" primitiveUnits="userSpaceOnUse"><feFlood></feFlood><feComposite in2="SourceAlpha" operator="in"></feComposite><feGaussianBlur stdDeviation="1"></feGaussianBlur><feOffset dx="2" dy="2" result="afterOffset"></feOffset><feFlood flood-color="#000000" flood-opacity="0.5"></feFlood><feComposite in2="afterOffset" operator="in"></feComposite><feMorphology operator="dilate" radius="1"></feMorphology><feComposite in2="SourceAlpha" operator="out"></feComposite></filter><path d="M509.86 385.24C509.86 387.18 508.29 388.76 506.35 388.76C498.99 388.76 480.35 388.76 472.97 388.76C471.09 388.76 469.57 387.24 469.57 385.36C469.57 370.73 469.57 330.45 469.57 315.87C469.57 313.86 471.2 312.24 473.2 312.24C480.54 312.24 499.04 312.24 506.4 312.24C508.32 312.24 509.86 313.78 509.86 315.7C509.86 330.31 509.86 370.64 509.86 385.24Z" id="b3rwuQboV" fill="white" fill-opacity="1" filter="url(#shadow2367137)"></path></g><use xlink:href="#h3q6n0cHMu" opacity="1" fill="#4c4c4c" fill-opacity="1"></use><g><use xlink:href="#h3q6n0cHMu" opacity="1" fill-opacity="0" stroke="#a4afee" stroke-width="0" stroke-opacity="1"></use></g></g><g><use xlink:href="#d3fVDVtEDz" opacity="1" fill="#515151" fill-opacity="1"></use></g><g><use xlink:href="#a22Cue0AEQ" opacity="1" fill="#b4b4b4" fill-opacity="1"></use></g><g><use xlink:href="#a105SX2vq" opacity="1" fill="#b75a50" fill-opacity="1"></use></g><g><g><filter id="shadow12209901" x="174.93" y="363.4" width="290.66" height="188.96" filterUnits="userSpaceOnUse" primitiveUnits="userSpaceOnUse"><feFlood></feFlood><feComposite in2="SourceAlpha" operator="in"></feComposite><feGaussianBlur stdDeviation="1"></feGaussianBlur><feOffset dx="2" dy="2" result="afterOffset"></feOffset><feFlood flood-color="#000000" flood-opacity="0.5"></feFlood><feComposite in2="afterOffset" operator="in"></feComposite><feMorphology operator="dilate" radius="1"></feMorphology><feComposite in2="SourceAlpha" operator="out"></feComposite></filter><path d="M444.52 540.36C449.53 540.36 453.59 536.3 453.59 531.29C453.59 499.71 453.59 413.84 453.59 382.21C453.59 377.34 449.65 373.4 444.79 373.4C429.84 373.4 392.48 373.4 332.69 373.4L305.83 373.4C245.61 373.4 207.97 373.4 192.92 373.4C188.51 373.4 184.93 376.98 184.93 381.39C184.93 413.18 184.93 501.23 184.93 533.19C184.93 537.15 188.14 540.36 192.1 540.36C215.52 540.36 281.9 540.36 306.15 540.36C306.15 540.36 312.23 540.36 312.23 540.36C315.65 540.36 322.57 540.36 325.92 540.36C325.92 540.36 332.76 540.36 332.76 540.36C356.92 540.36 421.48 540.36 444.52 540.36Z" id="aYukeVgci" fill="white" fill-opacity="1" filter="url(#shadow12209901)"></path></g><use xlink:href="#p86C8Xe2Ui" opacity="1" fill="#4c4c4c" fill-opacity="1"></use></g><g><use xlink:href="#gakz9ZeBo" opacity="1" fill="#181818" fill-opacity="1"></use></g><g><use xlink:href="#aHHXb8ZLm" opacity="1" fill="#83b389" fill-opacity="1"></use></g><g><g><filter id="shadow2910956" x="159.47" y="516.95" width="320.17" height="39.56" filterUnits="userSpaceOnUse" primitiveUnits="userSpaceOnUse"><feFlood></feFlood><feComposite in2="SourceAlpha" operator="in"></feComposite><feGaussianBlur stdDeviation="1"></feGaussianBlur><feOffset dx="2" dy="2" result="afterOffset"></feOffset><feFlood flood-color="#000000" flood-opacity="0.5"></feFlood><feComposite in2="afterOffset" operator="in"></feComposite><feMorphology operator="dilate" radius="1"></feMorphology><feComposite in2="SourceAlpha" operator="out"></feComposite></filter><path d="M458.86 526.95C463.7 526.95 467.64 530.88 467.64 535.73C467.64 537.49 467.64 533.98 467.64 535.73C467.64 540.58 463.7 544.51 458.86 544.51C400.98 544.51 236.12 544.51 178.25 544.51C173.4 544.51 169.47 540.58 169.47 535.73C169.47 533.98 169.47 537.49 169.47 535.73C169.47 530.88 173.4 526.95 178.25 526.95C236.12 526.95 400.98 526.95 458.86 526.95Z" id="c7SGS3EBQ" fill="white" fill-opacity="1" filter="url(#shadow2910956)"></path></g><use xlink:href="#f2pGR0F51b" opacity="1" fill="#b1b1b1" fill-opacity="1"></use></g><g><use xlink:href="#b8iJghlrkI" opacity="1" fill="#353535" fill-opacity="1"></use></g><g><use xlink:href="#cUnt2IUg4" opacity="1" fill="#e3e2e2" fill-opacity="1"></use></g><g><use xlink:href="#f8hJAZEsar" opacity="1" fill="#e3e2e2" fill-opacity="1"></use></g><g><use xlink:href="#bbRVyUODK" opacity="1" fill="#e3e2e2" fill-opacity="1"></use></g></g></g></svg>